<svg version="1.1" id="Layer_1" xmlns="http://www.w3.org/2000/svg" xmlns:xlink="http://www.w3.org/1999/xlink" x="0px" y="0px"
	 width="100%" viewBox="0 0 1024 1024" enable-background="new 0 0 1024 1024" xml:space="preserve">
<path fill="#000000" opacity="1.000000" stroke="none" 
	d="
M439.132446,566.832520 
	C447.494110,572.653198 455.627014,578.180542 463.585175,583.948975 
	C466.946960,586.385803 468.703888,585.579285 470.484863,582.103821 
	C478.158203,567.129578 486.109650,552.297363 493.717987,537.290771 
	C495.771454,533.240601 497.631348,532.086487 501.568878,535.134644 
	C506.436371,538.902649 511.624542,542.264160 516.752502,545.683960 
	C518.749268,547.015625 519.393677,548.358032 518.197021,550.634399 
	C505.096771,575.553955 492.049988,600.501709 478.983276,625.438965 
	C478.671600,626.033813 478.297119,626.595642 477.741119,627.525452 
	C468.652588,621.127258 460.107483,615.118530 451.569611,609.099548 
	C438.497101,599.883789 425.289642,590.849976 412.435547,581.338867 
	C407.922913,577.999878 404.913422,578.601929 400.754486,581.888977 
	C379.842865,598.416809 358.700073,614.652283 337.619995,630.966492 
	C336.075653,632.161682 334.384949,633.167786 332.262177,634.598999 
	C330.056152,629.835449 329.829010,625.158691 328.999084,620.725769 
	C322.427155,585.623596 316.011627,550.492065 309.613403,515.357605 
	C308.987457,511.920227 307.646027,509.363464 304.637848,507.216705 
	C272.090393,483.990387 239.648361,460.616333 207.184830,437.272491 
	C206.266556,436.612152 205.163467,436.077820 204.779709,434.456360 
	C208.829285,432.017242 213.549835,431.864410 217.949265,430.899658 
	C249.788773,423.917511 281.669769,417.124695 313.529175,410.232971 
	C315.529602,409.800232 317.424591,409.343292 319.283142,410.621735 
	C326.967834,415.907959 334.670380,421.168335 342.338165,426.478912 
	C342.815521,426.809509 343.051392,427.488770 343.958954,428.836212 
	C317.869385,434.488586 292.349487,440.017548 265.422302,445.851410 
	C275.099121,452.742706 283.603546,458.801270 292.110229,464.856659 
	C304.870056,473.939636 317.683228,482.949188 330.356018,492.151978 
	C333.539124,494.463531 336.107239,494.933502 339.829041,492.930450 
	C363.593353,480.141022 387.509552,467.633972 411.366425,455.016296 
	C413.379364,453.951691 415.323608,452.757080 418.163849,451.127045 
	C394.838715,435.159485 372.283112,419.718719 349.727478,404.277954 
	C349.820343,403.639191 349.913239,403.000458 350.006134,402.361694 
	C373.056824,397.536591 396.066742,392.502533 419.534760,389.664581 
	C412.783112,392.508698 405.997742,394.990479 398.756500,395.937988 
	C395.706360,396.337128 391.358795,396.303436 391.564423,400.346375 
	C391.770782,404.402863 396.116089,404.101044 399.189636,404.013763 
	C406.202240,403.814575 413.147308,404.561890 420.122742,404.949280 
	C426.128662,405.282776 431.684113,404.047455 435.719208,398.863983 
	C437.852539,396.123535 440.982727,394.840485 444.373077,394.297119 
	C446.984070,393.878632 448.964355,394.957275 450.217773,397.209045 
	C451.399719,399.332336 450.378448,401.042633 448.889282,402.571655 
	C448.191650,403.287964 447.548676,404.074860 446.773376,404.695312 
	C443.027069,407.693481 441.181946,410.215790 446.241760,414.257660 
	C449.668854,416.995331 449.920563,421.797607 449.777435,426.319183 
	C449.619476,431.310394 451.354706,432.642181 455.563538,431.521210 
	C464.368958,429.175995 466.274384,429.545013 469.224274,438.187134 
	C471.598297,445.142120 477.068420,450.110077 479.397217,456.938538 
	C480.177490,459.226471 482.360474,458.849945 484.050537,457.800293 
	C488.219788,455.210999 492.683228,455.669830 497.152618,456.371490 
	C505.733429,457.718567 519.549072,450.804474 523.884338,443.223480 
	C527.266479,437.309265 529.008118,430.962891 529.842529,424.302765 
	C530.005127,423.004822 530.161194,421.485657 529.662781,420.359497 
	C524.740112,409.237274 527.512268,399.506195 534.739807,390.474274 
	C536.398193,388.401917 535.751709,386.430450 534.148499,384.622467 
	C531.577087,381.722565 529.480164,378.599274 528.625732,374.700806 
	C528.023254,371.952148 525.816528,370.643036 523.273376,370.009583 
	C520.727600,369.375427 518.132385,368.939697 515.436218,367.624512 
	C551.981506,357.727905 589.085815,350.506042 625.783325,342.048431 
	C627.236816,344.790131 625.618713,346.208466 624.839966,347.696991 
	C595.415955,403.936432 565.947876,460.152893 536.489197,516.374207 
	C535.097351,519.030579 533.671875,521.672424 532.381531,524.377930 
	C531.033020,527.205505 529.445435,527.354553 526.906433,525.602173 
	C507.984863,512.542908 488.990326,499.589355 470.021942,486.597870 
	C465.760773,483.679413 461.513153,480.741272 457.258270,477.813599 
	C455.493500,476.599304 453.813354,476.040253 451.812469,477.584839 
	C430.187347,494.278717 408.524567,510.923798 386.887512,527.602234 
	C386.531189,527.876953 386.368011,528.402283 385.784332,529.343323 
	C403.490540,541.790833 421.161804,554.213745 439.132446,566.832520 
z"/>
<path fill="#000000" opacity="1.000000" stroke="none" 
	d="
M584.128052,275.105774 
	C572.544189,293.567322 566.822754,313.165192 568.973267,334.723999 
	C569.209106,337.087616 568.313110,337.985870 566.116272,338.437683 
	C556.833679,340.346863 547.562744,342.318939 538.318115,344.403564 
	C535.096924,345.129944 533.948486,344.185303 533.548035,340.823181 
	C529.813477,309.467773 537.403381,280.872040 555.329285,255.232407 
	C579.918762,220.061630 614.424438,200.300217 656.559265,195.003693 
	C703.601624,189.090240 745.846069,201.186508 780.976318,233.928452 
	C804.648743,255.991531 818.069641,283.429993 821.415710,315.809418 
	C824.054077,341.340363 817.102234,364.922974 807.737549,388.091980 
	C792.041748,426.924622 770.142456,462.315033 746.932495,496.947571 
	C725.966736,528.231323 703.617859,558.520081 680.498230,588.241760 
	C679.603271,589.392212 678.985840,590.877258 677.402893,591.298462 
	C676.206909,591.292175 675.581116,590.480774 674.974182,589.690491 
	C643.914612,549.246643 613.829224,508.115906 586.699646,464.888397 
	C584.780273,461.830139 584.636169,459.341736 586.357361,456.152405 
	C594.504517,441.055847 602.536682,425.895233 610.403076,410.650757 
	C612.032104,407.493958 613.383423,407.050873 616.497498,408.824402 
	C660.390198,433.821564 704.040771,433.244141 745.095032,403.749695 
	C797.753113,365.918701 799.639343,295.274170 751.919617,254.196762 
	C710.700806,218.715363 649.625000,217.292099 606.588867,250.644501 
	C597.861389,257.408203 590.438049,265.546417 584.128052,275.105774 
M671.354004,529.165466 
	C673.455872,531.382324 674.529968,534.570190 677.863708,536.260864 
	C698.390015,507.291962 719.126892,478.753357 737.083618,448.124847 
	C696.950867,463.731415 657.111816,463.383850 617.069641,447.903015 
	C633.784485,475.880127 652.138977,502.384277 671.354004,529.165466 
z"/>
<path fill="#000000" opacity="1.000000" stroke="none" 
	d="
M355.450989,725.417908 
	C372.317047,712.324768 389.653717,711.317932 407.966370,722.073853 
	C409.302429,719.916077 408.611450,717.541687 408.637573,715.334290 
	C408.740082,706.671021 408.710388,698.005920 408.691925,689.341614 
	C408.687286,687.155762 408.888367,685.356873 411.791229,685.354980 
	C417.782898,685.351135 423.776154,685.268494 429.765472,685.101868 
	C433.175262,685.006958 434.373901,686.432495 434.364258,689.881714 
	C434.266083,725.038757 434.261566,760.196350 434.347473,795.353516 
	C434.356323,798.982544 433.180603,800.529663 429.457458,800.336060 
	C425.469299,800.128723 421.462036,800.294922 417.463104,800.286255 
	C410.222687,800.270569 410.222687,800.266846 409.141693,792.613342 
	C396.666656,802.252441 382.963226,803.756531 368.610077,798.918213 
	C359.826752,795.957336 352.903809,790.239136 348.064545,782.246887 
	C337.290192,764.452454 340.466675,739.432739 355.450989,725.417908 
M403.131042,773.606873 
	C404.018677,772.405640 405.021973,771.272400 405.775085,769.992004 
	C410.428436,762.080688 409.563293,750.160217 403.886566,743.164062 
	C399.039368,737.190247 389.223877,734.551086 381.589020,737.168701 
	C373.946503,739.789062 368.860535,746.529968 368.220856,754.743347 
	C367.456543,764.556946 369.579987,773.027710 379.100098,777.951965 
	C386.616211,781.839661 395.398102,780.328369 403.131042,773.606873 
z"/>
<path fill="#000000" opacity="1.000000" stroke="none" 
	d="
M894.245605,777.982788 
	C885.814270,797.759277 857.875916,810.516541 832.366455,794.199036 
	C830.630798,795.610474 831.395508,797.585693 831.379700,799.283875 
	C831.299316,807.943665 831.253784,816.606567 831.412170,825.264404 
	C831.474304,828.659424 830.219482,830.186584 826.806213,830.129028 
	C821.311646,830.036316 815.814636,830.036072 810.319092,830.068970 
	C806.940430,830.089233 805.662109,828.513611 805.669861,825.148071 
	C805.750488,790.338989 805.775574,755.529602 805.709351,720.720520 
	C805.702148,716.955139 807.294617,715.719727 810.825012,715.831055 
	C815.483582,715.978027 820.164734,716.082581 824.809692,715.788574 
	C829.012512,715.522583 831.264343,716.646606 830.468506,721.292542 
	C830.374390,721.842102 830.760193,722.473816 831.139221,723.851379 
	C837.398560,719.121460 843.845337,716.065186 851.342041,715.261047 
	C872.103516,713.034302 892.467224,724.710815 897.198120,748.285706 
	C899.218567,758.354004 898.429504,768.144409 894.245605,777.982788 
M834.310547,770.091614 
	C839.066589,778.478210 846.680054,780.870300 855.571777,779.551514 
	C863.769348,778.335632 868.988403,773.159424 871.100586,765.230286 
	C872.770691,758.960510 872.345398,752.709534 869.264465,746.819580 
	C864.548889,737.804565 853.522461,733.783936 844.100342,737.642822 
	C832.634277,742.338745 828.169250,756.332397 834.310547,770.091614 
z"/>
<path fill="#000000" opacity="1.000000" stroke="none" 
	d="
M148.084061,788.969116 
	C122.557838,768.847656 121.987175,729.267578 141.928299,707.896362 
	C153.067642,695.958069 167.041473,690.332581 183.223083,689.458557 
	C200.042145,688.550171 215.224014,692.444763 228.108932,703.723206 
	C233.660934,708.583069 233.644501,708.823425 228.095963,713.862244 
	C225.505997,716.214294 222.665115,718.352112 220.400024,720.984619 
	C217.346542,724.533447 215.077011,724.683289 211.445709,721.351562 
	C200.752457,711.540588 188.156845,709.631592 174.721069,714.534180 
	C159.813568,719.973816 152.164551,735.657471 155.443893,753.037720 
	C158.214493,767.721802 171.287460,778.347107 186.305161,778.786804 
	C196.665222,779.090088 205.234268,775.491394 212.388107,768.372070 
	C214.803085,765.968750 216.420822,765.554626 218.916077,768.078003 
	C222.426666,771.628113 226.124939,775.011475 229.932785,778.242371 
	C232.550629,780.463562 232.749390,782.184448 230.238419,784.733704 
	C217.181213,797.990356 201.054611,802.902954 182.966110,801.926697 
	C170.233963,801.239441 158.490784,797.255554 148.084061,788.969116 
z"/>
<path fill="#000000" opacity="1.000000" stroke="none" 
	d="
M509.636719,778.757446 
	C510.895203,778.183044 511.816620,777.784607 512.680359,777.286133 
	C520.025757,773.046936 520.017578,773.046387 525.768433,779.055603 
	C527.956848,781.342346 530.180176,783.595764 532.370361,785.880981 
	C532.589661,786.109741 532.689209,786.453369 532.988708,787.014038 
	C532.062012,789.690735 529.694031,791.315063 527.456848,792.936707 
	C508.817444,806.448425 476.234253,804.172241 460.438934,787.467346 
	C448.724762,775.078735 446.124481,759.834167 451.310364,743.753479 
	C456.507446,727.638245 468.574463,719.036316 484.781860,715.694214 
	C492.088501,714.187439 499.366058,714.455200 506.571472,716.187683 
	C527.449585,721.207458 540.191040,738.418762 539.243958,759.911011 
	C539.070740,763.842712 537.788757,765.487244 533.597656,765.441650 
	C516.103638,765.251099 498.606476,765.329773 481.110565,765.363525 
	C479.358276,765.366882 477.438263,764.764832 475.897583,766.174988 
	C477.830688,777.919006 494.479187,784.401062 509.636719,778.757446 
M500.295654,735.013672 
	C487.466644,732.286377 476.340271,738.694824 475.930695,749.284302 
	C488.381592,749.284302 500.816864,749.284302 513.964600,749.284302 
	C511.973816,741.702942 507.621124,737.476990 500.295654,735.013672 
z"/>
<path fill="#000000" opacity="1.000000" stroke="none" 
	d="
M316.482483,791.541748 
	C298.022125,805.091675 270.857544,805.015381 254.336716,791.096802 
	C239.966721,778.990295 236.190598,763.113953 240.991867,745.520630 
	C245.738968,728.125793 258.494019,718.853271 275.727417,715.801697 
	C291.731171,712.967834 306.667389,715.866455 319.010254,727.104797 
	C337.934235,744.335327 336.727356,775.220215 316.482483,791.541748 
M304.626770,749.037903 
	C302.736908,744.407104 299.702057,740.799988 295.223969,738.465698 
	C287.474243,734.426086 277.648193,735.614929 271.513580,741.348755 
	C265.050110,747.389954 262.966370,758.436584 266.629059,767.243652 
	C270.173981,775.767639 276.856873,780.135559 286.093933,779.966003 
	C294.892853,779.804321 301.675568,775.080505 304.838684,766.833679 
	C307.012207,761.166931 306.711487,755.470398 304.626770,749.037903 
z"/>
<path fill="#000000" opacity="1.000000" stroke="none" 
	d="
M622.830017,798.733887 
	C622.689270,772.181946 622.681458,746.030579 622.666504,719.879272 
	C622.662659,713.121155 622.652283,713.123169 615.685974,713.100891 
	C609.023010,713.079651 602.360107,713.055298 595.697144,713.029297 
	C587.841553,712.998596 587.846191,712.997192 587.895935,704.898621 
	C587.913391,702.066956 587.940979,699.234558 587.893433,696.403687 
	C587.838196,693.122498 589.192383,691.381165 592.674927,691.664062 
	C613.426575,693.350098 634.277100,690.453613 655.008301,692.991760 
	C658.954468,693.474854 663.201233,692.891907 664.161865,698.983337 
	C664.606689,701.803589 668.182068,703.743652 671.765625,703.447998 
	C675.262146,703.159363 677.686035,701.555054 678.526855,697.892700 
	C678.907959,696.233215 678.763306,693.534424 681.216003,693.802002 
	C684.028320,694.108826 683.065674,696.925293 683.139771,698.720337 
	C683.729675,713.010742 683.694946,713.013184 669.349915,713.045166 
	C664.685852,713.055603 660.005371,713.306519 655.362366,712.997192 
	C650.602539,712.680115 648.997192,714.396179 649.045227,719.241760 
	C649.281738,743.059875 649.220337,766.881104 649.228149,790.701233 
	C649.231628,801.424805 650.184326,800.478699 639.555908,800.232361 
	C634.032227,800.104370 628.330505,801.767456 622.830017,798.733887 
z"/>
<path fill="#000000" opacity="1.000000" stroke="none" 
	d="
M719.895386,753.103760 
	C718.272217,766.613953 719.392090,779.767578 719.111145,792.897156 
	C718.952026,800.336304 719.089783,800.340393 711.687500,800.339600 
	C706.861084,800.339050 702.033508,800.271851 697.208618,800.356018 
	C694.400574,800.404968 692.831604,799.495544 692.839722,796.388062 
	C692.906372,770.924866 692.921692,745.461548 692.928589,719.998230 
	C692.929382,717.065308 694.310242,715.782104 697.217041,715.826294 
	C702.208862,715.902222 707.208435,716.030457 712.192932,715.834534 
	C716.093445,715.681152 718.423035,716.593506 717.504211,721.121582 
	C717.314941,722.054688 717.257690,723.135742 718.313049,723.923767 
	C720.174377,724.190247 721.201599,722.625122 722.430664,721.658875 
	C728.180725,717.138367 734.940979,715.664490 741.971985,714.969299 
	C745.569702,714.613586 747.147583,716.244263 747.013367,719.920898 
	C746.855713,724.241455 746.835327,728.582703 747.073120,732.897400 
	C747.297485,736.968811 745.833252,738.660461 741.618530,738.326782 
	C738.161743,738.053162 734.729126,738.346985 731.352722,739.751404 
	C725.355408,742.246094 721.525146,746.397400 719.895386,753.103760 
z"/>
<path fill="#000000" opacity="1.000000" stroke="none" 
	d="
M622.024475,278.053192 
	C623.678711,278.023834 624.856750,278.099060 626.007751,277.956177 
	C633.337036,277.046173 638.479492,279.973114 643.049561,285.822540 
	C652.887268,298.414368 663.317322,310.546417 673.622864,322.767242 
	C675.760193,325.301819 676.359009,327.216858 673.977905,330.077118 
	C662.368103,344.023041 650.952942,358.130890 639.441711,372.159119 
	C638.640991,373.134918 637.961792,374.464325 636.211182,374.196411 
	C634.727173,372.692139 635.841064,371.134979 636.251770,369.633362 
	C638.678040,360.761810 640.341614,351.773438 639.690369,342.541229 
	C639.339722,337.570587 642.446472,334.447327 645.277039,331.289368 
	C648.241638,327.981842 648.354065,325.602478 645.305481,322.010437 
	C634.535645,309.320404 624.165405,296.290924 613.673279,283.366089 
	C612.667297,282.126892 611.166077,281.096619 611.391357,278.893219 
	C614.610229,277.273987 618.148438,278.356537 622.024475,278.053192 
z"/>
<path fill="#000000" opacity="1.000000" stroke="none" 
	d="
M785.336426,754.000122 
	C785.342224,767.990662 785.228699,781.482971 785.423706,794.970764 
	C785.483826,799.130127 784.004456,800.604492 779.909546,800.378479 
	C775.261047,800.121887 770.570679,800.111511 765.927063,800.421631 
	C761.173096,800.739075 759.461487,798.976990 759.530151,794.152283 
	C759.757751,778.166565 759.633179,762.175842 759.642639,746.187012 
	C759.647522,737.859497 759.791199,729.528503 759.590576,721.205933 
	C759.498901,717.403687 760.679565,715.695679 764.679077,715.856140 
	C769.833130,716.062988 775.008789,716.025635 780.163879,715.816528 
	C784.012451,715.660461 785.462219,717.066650 785.388794,721.023987 
	C785.188232,731.845947 785.329834,742.674255 785.336426,754.000122 
z"/>
<path fill="#000000" opacity="1.000000" stroke="none" 
	d="
M685.073425,375.188477 
	C675.071716,375.167664 675.071716,375.167664 675.105957,365.641357 
	C675.133545,357.968018 675.133545,357.976044 682.963318,357.982361 
	C694.778076,357.991913 706.594727,357.869171 718.406433,358.059418 
	C722.281921,358.121887 726.779541,357.325714 726.620544,364.184662 
	C726.539429,367.681213 730.942078,366.792694 733.650513,366.899994 
	C736.052734,366.995209 737.473022,365.993073 737.172729,363.322357 
	C736.847168,360.426880 737.697754,358.264893 741.019226,358.216309 
	C745.030762,358.157684 744.255737,361.307709 744.245239,363.627991 
	C744.186462,376.594238 746.117065,375.038544 732.987671,375.118439 
	C717.179626,375.214630 701.370667,375.173401 685.073425,375.188477 
z"/>
<path fill="#000000" opacity="1.000000" stroke="none" 
	d="
M760.960815,682.933105 
	C766.513000,678.601807 772.345825,677.580200 778.618164,679.758240 
	C785.537048,682.160645 788.816223,687.227905 788.249939,694.253296 
	C787.762329,700.303040 782.901917,705.195251 776.192261,706.389893 
	C768.702148,707.723450 761.892151,705.135315 758.703308,699.743347 
	C755.518250,694.357788 756.157471,689.003418 760.960815,682.933105 
M768.586975,687.112549 
	C767.252686,691.497192 770.198364,693.636841 773.311462,695.223450 
	C775.740540,696.461426 777.840210,694.914856 779.160828,692.804932 
	C780.538025,690.604797 779.794312,688.699219 777.786621,687.205383 
	C775.016174,685.144226 772.147949,684.483032 768.586975,687.112549 
z"/>
</svg>